<svg xmlns="http://www.w3.org/2000/svg"  viewBox="0 0 48 48" width="48px" height="48px"><path d="M 7.9667969 5 C 7.7507969 5 7.5626719 5.1484219 7.5136719 5.3574219 C 7.4646719 5.5674219 7.5658125 5.7829062 7.7578125 5.8789062 L 10 7 L 10 32 L 7.8867188 33.056641 C 7.6807187 33.159641 7.5700469 33.391234 7.6230469 33.615234 C 7.6760469 33.840234 7.8764219 34 8.1074219 34 L 19 34 L 19 41 L 16.958984 42.019531 C 16.744984 42.126531 16.6325 42.368562 16.6875 42.601562 C 16.7425 42.835562 16.950453 43 17.189453 43 L 28.199219 43 C 31.399219 43 42 43 42 28.5 C 42 18.162159 36.720131 15.207256 32.453125 14.355469 C 32.014548 12.481258 31.340243 10.977121 30.5 9.8007812 C 27.2 5.0007812 21.499219 5 19.199219 5 L 7.9667969 5 z M 14 7 L 20 7 C 21.9 7 24.499219 6.9003906 26.199219 9.9003906 C 26.741663 10.876791 27.219849 12.221642 27.548828 14 L 17.189453 14 C 16.949453 14 16.740547 14.165437 16.685547 14.398438 C 16.630547 14.631438 16.742031 14.871516 16.957031 14.978516 L 19 16 L 19 32 L 14 32 L 14 7 z M 23 16 L 27.832031 16 C 27.937155 17.046565 28 18.202079 28 19.5 L 28 19.599609 C 28 28.518721 25.533478 31.016119 23 31.71875 L 23 16 z M 32.837891 16.583984 C 35.053441 17.61938 37 20.495379 37 28.5 C 37 41.2 32.1 41 29 41 L 23 41 L 23 33.720703 C 27.251942 32.983401 32.853656 30.244102 33 20 L 33 19.5 C 33 18.451356 32.940171 17.485639 32.837891 16.583984 z"/></svg>